<svg xmlns="http://www.w3.org/2000/svg" style="display: none;"><symbol id="like" viewBox="0 0 512 512"><title>like</title><path xmlns="http://www.w3.org/2000/svg" d="m511.917969 256c0-141.386719-114.597657-256-255.957031-256-141.363282 0-255.960938 114.613281-255.960938 256s114.597656 256 255.960938 256c141.359374 0 255.957031-114.613281 255.957031-256zm0 0" fill="#808182" data-original="#407fff" style="" class=""/><path xmlns="http://www.w3.org/2000/svg" d="m393.070312 39.800781c46.359376 46.332031 75.035157 110.359375 75.035157 181.082031 0 141.386719-114.597657 256-255.960938 256-50.445312 0-97.472656-14.601562-137.109375-39.800781 46.3125 46.289063 110.277344 74.917969 180.925782 74.917969 141.359374 0 255.957031-114.613281 255.957031-256 0-90.933594-47.40625-170.785156-118.847657-216.199219zm0 0" fill="#767474" data-original="#406aef" style="" class=""/><path xmlns="http://www.w3.org/2000/svg" d="m373.394531 247.140625c0-13.941406-11.296875-25.238281-25.234375-25.238281h-35.769531c10.332031-25.851563 11.085937-47.046875 11.019531-53.835938-.007812-.746094.160156-3.390625.160156-3.976562v-1.175782c-.75-24.550781-8.265624-32.066406-17.917968-35.644531-9.898438 0-17.921875 8.019531-17.921875 17.917969v1.792969c-.097657 6.136719-8.71875 18.796875-8.71875 18.796875l-65.757813 66.515625-1.109375 1.363281-20 53.484375 20 82.929687c0 2.515626 2.039063 4.550782 4.550781 4.550782h123.800782c8.421875 0 15.582031-6.140625 16.855468-14.46875 4.867188-31.835938 16.042969-105.710938 16.042969-113.011719zm0 0" fill="#baf9b8" data-original="#e3faff" style="" class=""/><path xmlns="http://www.w3.org/2000/svg" d="m197.863281 384.734375h-45.058593c-7.886719 0-14.28125-6.394531-14.28125-14.285156v-135.28125c0-7.890625 6.394531-14.28125 14.28125-14.28125h45.058593c7.886719 0 14.28125 6.390625 14.28125 14.28125v135.28125c0 7.890625-6.394531 14.285156-14.28125 14.285156zm0 0" fill="#acf5a5" data-original="#48d8ff" style="" class=""/><path xmlns="http://www.w3.org/2000/svg" d="m197.863281 357.824219h-45.058593c-7.886719 0-14.28125-6.394531-14.28125-14.285157v26.910157c0 7.890625 6.394531 14.285156 14.28125 14.285156h45.058593c7.886719 0 14.28125-6.394531 14.28125-14.285156v-26.910157c0 7.890626-6.394531 14.285157-14.28125 14.285157zm0 0" fill="#79e41e" data-original="#43c5ff" style="" class=""/><path xmlns="http://www.w3.org/2000/svg" d="m348.160156 221.902344h-4.628906c-.234375 2.21875-.589844 5.125-1.035156 8.570312-8.476563 65.542969-64.273438 114.621094-130.351563 114.621094v24.972656c0 2.515625 2.039063 4.554688 4.550781 4.554688h123.800782c8.421875 0 15.582031-6.144532 16.855468-14.46875 4.867188-31.835938 16.042969-105.710938 16.042969-113.015625 0-13.9375-11.296875-25.234375-25.234375-25.234375zm0 0" fill="#ccffcf" data-original="#ccf4ff" style="" class=""/></symbol><symbol id="dislike" viewBox="0 0 32 32"><title>dislike</title><circle r="16" cx="16" cy="16" fill="#5f5f60" shape="circle" transform="matrix(1,0,0,1,0,0)"/><g transform="matrix(0.7,0,0,0.7,4.800000000000001,4.800000000000001)"> <path xmlns="http://www.w3.org/2000/svg" d="m26 32h-20c-3.314 0-6-2.686-6-6v-20c0-3.314 2.686-6 6-6h20c3.314 0 6 2.686 6 6v20c0 3.314-2.686 6-6 6z" fill="#606060" data-original="#fff9dd" style="" class=""/> <path xmlns="http://www.w3.org/2000/svg" d="m21.167 18.667h1.667c.643 0 1.167-.523 1.167-1.167v-7.667c0-.643-.523-1.167-1.167-1.167h-1.667c-.644.001-1.167.524-1.167 1.167v7.667c0 .643.523 1.167 1.167 1.167z" fill="#ff0b0b" data-original="#ffe777" style="" class=""/> <path xmlns="http://www.w3.org/2000/svg" d="m10.666 18.167h3.147s-.5 1-.5 2.667c0 2 1.5 2.667 2.167 2.667s1-.333 1-2c0-1.584 1.534-2.858 2.521-3.515v-8.26c-1.068-.494-3.205-1.226-6.522-1.226h-1.067c-1.3 0-2.407.933-2.627 2.213l-.747 4.333c-.279 1.634.975 3.121 2.628 3.121z" fill="#ff1600" data-original="#ffd200" style="" class=""/> </g></symbol></svg>